<?xml version="1.0" encoding="utf-8"?>
<!-- Generator: Adobe Illustrator 23.0.3, SVG Export Plug-In . SVG Version: 6.00 Build 0)  -->
<svg version="1.1" id="Layer_1" xmlns="http://www.w3.org/2000/svg" xmlns:xlink="http://www.w3.org/1999/xlink" x="0px" y="0px"
	 viewBox="0 0 135.9 50" style="enable-background:new 0 0 135.9 50;" xml:space="preserve">
<style type="text/css">
	.st0{fill-rule:evenodd;clip-rule:evenodd;fill:#232323;}
	.st1{fill:#232323;}
</style>
<title>Asset 1</title>
<g>
	<g id="Layer_1-2">
		<polygon class="st0" points="44.6,41.9 44.6,47.4 44.6,47.4 42.8,41.9 41,41.9 41,49.9 42.4,49.9 42.4,44.3 42.4,44.3 44.3,49.9 
			46,49.9 46,41.9 		"/>
		<polygon class="st0" points="49,41.9 49,49.9 54,49.9 54,48.6 50.8,48.6 50.8,46.5 53.7,46.5 53.7,45.1 50.8,45.1 50.8,43.2 
			53.9,43.2 53.9,41.9 		"/>
		<polygon class="st0" points="62.3,41.9 61.4,47.8 61.3,47.8 60.3,41.9 58.7,41.9 57.7,47.8 57.6,47.8 56.7,41.9 55,41.9 
			56.6,49.9 58.5,49.9 59.5,44.1 59.5,44.1 60.5,49.9 62.4,49.9 64,41.9 		"/>
		<polygon class="st0" points="71.2,41.9 70,45 70,45 68.9,41.9 67,41.9 69.2,46.8 69.2,49.9 70.8,49.9 70.8,46.8 73,41.9 		"/>
		<path class="st0" d="M75.8,47.3c0,0.3,0.1,0.6,0.2,0.9c0.1,0.2,0.2,0.4,0.4,0.5c0.4,0.2,0.8,0.2,1.2,0c0.2-0.1,0.3-0.3,0.4-0.5
			c0.1-0.3,0.2-0.6,0.2-0.9c0-0.4,0-0.8,0-1.4s0-1,0-1.4c0-0.3-0.1-0.6-0.2-0.9c-0.1-0.2-0.2-0.4-0.4-0.5c-0.4-0.2-0.8-0.2-1.2,0
			c-0.2,0.1-0.3,0.3-0.4,0.5c-0.1,0.3-0.1,0.6-0.2,0.9c0,0.4-0.1,0.8-0.1,1.4S75.7,46.9,75.8,47.3 M74.1,44.2c0-0.5,0.2-0.9,0.4-1.3
			c0.2-0.4,0.5-0.7,0.9-0.9c0.5-0.2,1-0.3,1.5-0.3c0.5,0,1.1,0.1,1.6,0.3c0.4,0.2,0.7,0.5,0.9,0.9c0.2,0.4,0.4,0.9,0.4,1.3
			c0.1,1.1,0.1,2.2,0,3.4c0,0.5-0.2,0.9-0.4,1.3c-0.2,0.4-0.5,0.7-0.9,0.8c-0.5,0.2-1,0.3-1.6,0.3c-0.5,0-1.1-0.1-1.5-0.3
			c-0.4-0.2-0.7-0.5-0.9-0.8c-0.2-0.4-0.3-0.9-0.4-1.3C74,46.4,74,45.3,74.1,44.2"/>
		<path class="st0" d="M83.8,45.4c0.4,0,0.7-0.1,1-0.3c0.2-0.2,0.4-0.6,0.3-0.9c0-0.8-0.4-1.1-1.2-1.1h-0.8v2.3L83.8,45.4z
			 M84.5,41.9c0.6,0,1.2,0.1,1.7,0.5c0.4,0.4,0.6,1,0.6,1.6c0,0.5-0.1,0.9-0.3,1.3c-0.3,0.4-0.6,0.6-1.1,0.7l0,0
			c0.4,0,0.7,0.1,1,0.4c0.2,0.3,0.4,0.6,0.4,1c0,0.2,0,0.3,0,0.5s0,0.4,0,0.6c0,0.3,0,0.7,0.1,1c0,0.2,0.1,0.4,0.3,0.5v0.1h-1.9
			c-0.1-0.1-0.1-0.2-0.2-0.4c0-0.1,0-0.3,0-0.5v-1.5c0-0.3-0.1-0.5-0.2-0.8c-0.2-0.2-0.5-0.3-0.9-0.3h-0.9v3.4h-1.7v-8L84.5,41.9z"
			/>
		<polygon class="st0" points="92.4,41.9 90.2,45.1 90.2,45.1 90.2,41.9 88.5,41.9 88.5,49.9 90.2,49.9 90.2,47.5 90.8,46.6 
			92.6,49.9 94.6,49.9 92,45.3 94.3,41.9 		"/>
		<rect y="0.3" class="st1" width="4.6" height="32.4"/>
		<polygon class="st0" points="8.1,0.3 8.1,32.7 19.3,32.7 19.3,28.9 12.7,28.9 12.7,0.3 		"/>
		<path class="st0" d="M31,32.7h-4.2V0.3h6.7l2.8,21.2L39,0.3h6.7v32.3h-4.3v-9.4c0-4.2,0.1-8.4,0.3-13.7l-3.4,23.1h-4.2L30.7,9.6
			C31,14.9,31,19,31,23.3L31,32.7z"/>
		<path class="st0" d="M55.6,9.5l1.5,13.7h-3.2L55.6,9.5z M52.7,0.3l-4.2,32.3h4.3l0.7-6.2h3.9l0.7,6.2h4.6L58.7,0.3H52.7z"/>
		<polygon class="st0" points="75.1,0.3 70.3,14.6 70.3,0.3 65.7,0.3 65.7,32.7 70.3,32.7 70.3,16.5 75.1,32.7 80.2,32.7 74.6,15.3 
			79.8,0.3 		"/>
		<rect x="82.8" y="0.3" class="st1" width="4.6" height="32.4"/>
		<path class="st0" d="M97.3,9.5l1.5,13.7h-3.2L97.3,9.5z M94.4,0.3l-4.2,32.3h4.3l0.7-6.2h3.9l0.7,6.2h4.6l-4.1-32.3H94.4z"/>
		<path class="st0" d="M112.5,33c-3.4,0-5.8-2.2-5.8-6.1V6.3c0-3.8,2.4-6.3,6.7-6.3s6.3,2.5,6.3,6.3v4.8h-4.3V6.2
			c0-1.2-0.5-2.5-2.1-2.5s-2.1,1.3-2.1,2.5v20.6c0,1.2,0.5,2.5,2.1,2.5c1.4,0,2.1-0.9,2.1-2.5v-7.2h-2.5V16h6.8v16.7h-2.7l-0.9-1.4
			C115.4,32.5,114,33.1,112.5,33"/>
		<polygon class="st0" points="123.8,0.3 123.8,32.7 135.9,32.7 135.9,28.9 128.4,28.9 128.4,17 133.3,17 133.3,13.3 128.4,13.3 
			128.4,4.1 135.7,4.1 135.7,0.3 		"/>
	</g>
</g>
</svg>
